<?xml version="1.0" standalone="no"?>
<!DOCTYPE svg PUBLIC "-//W3C//DTD SVG 20010904//EN"
 "http://www.w3.org/TR/2001/REC-SVG-20010904/DTD/svg10.dtd">
<svg version="1.0" xmlns="http://www.w3.org/2000/svg"
 width="1536.000000pt" height="1024.000000pt" viewBox="0 0 1536.000000 1024.000000"
 preserveAspectRatio="xMidYMid meet">

<g transform="translate(0.000000,1024.000000) scale(0.100000,-0.100000)"
fill="#000000" stroke="none">
<path d="M8610 9276 c0 -2 7 -7 16 -10 8 -3 12 -2 9 4 -6 10 -25 14 -25 6z"/>
<path d="M6450 9051 c-125 -39 -200 -134 -199 -256 0 -112 45 -186 142 -235
137 -69 304 -15 364 117 48 104 24 232 -57 310 -59 58 -174 87 -250 64z m180
-148 c50 -53 61 -111 32 -175 -27 -61 -78 -93 -150 -92 -89 2 -152 67 -152
156 0 61 20 100 68 133 32 23 45 26 101 23 59 -4 66 -7 101 -45z"/>
<path d="M7435 8946 c-101 -44 -125 -178 -46 -257 75 -75 177 -74 245 2 97
107 21 270 -126 269 -23 -1 -57 -7 -73 -14z"/>
<path d="M10135 8505 c-55 -23 -253 -113 -440 -200 -187 -87 -370 -171 -407
-188 -38 -17 -68 -34 -68 -38 0 -4 30 -26 68 -49 62 -38 210 -129 240 -147 9
-6 -21 -58 -109 -188 -283 -419 -525 -774 -563 -827 -39 -54 -184 -264 -488
-708 -77 -113 -205 -302 -285 -420 -79 -118 -147 -216 -151 -217 -4 -2 -20 16
-37 40 -66 93 -237 289 -355 405 -329 326 -730 613 -1227 881 -162 86 -368
183 -418 195 -16 4 -75 30 -130 58 -177 89 -457 208 -491 208 -32 0 -10 -571
35 -885 79 -558 272 -1067 554 -1465 318 -447 704 -739 1235 -934 193 -71 491
-146 581 -146 l28 0 -42 127 c-142 435 -427 944 -734 1313 -187 224 -556 594
-725 728 -46 36 -12 25 61 -19 169 -104 334 -221 486 -347 122 -100 364 -344
458 -462 195 -245 360 -527 466 -800 25 -63 46 -116 48 -118 1 -2 8 43 15 100
16 143 37 263 66 387 14 58 21 107 16 109 -34 11 -106 68 -132 103 -39 55 -53
110 -47 184 8 106 73 193 170 230 67 25 184 17 252 -17 155 -80 202 -256 107
-400 -28 -42 -103 -95 -150 -104 -17 -4 -36 -11 -41 -18 -12 -15 -58 -220 -77
-348 -22 -143 -29 -496 -15 -655 17 -176 83 -555 101 -576 3 -4 68 3 143 15
114 18 136 25 132 38 -15 37 -56 249 -77 395 -32 227 -33 613 -1 790 40 224
126 470 241 695 128 247 500 823 824 1272 54 75 119 165 143 200 25 35 59 83
77 108 73 104 340 506 423 638 49 78 93 141 97 140 10 -4 175 -130 249 -191
33 -26 59 -42 59 -35 0 7 -7 139 -14 293 -8 154 -20 404 -26 555 -7 151 -15
289 -19 306 l-6 31 -100 -42z"/>
<path d="M6525 8411 c-48 -7 -49 35 4 -386 22 -176 49 -401 61 -500 12 -99 30
-245 40 -325 11 -80 25 -191 31 -247 13 -113 8 -105 104 -158 53 -30 51 -37
30 107 -8 57 -32 254 -54 438 -22 184 -56 466 -75 625 -19 160 -38 327 -42
373 -8 92 -2 88 -99 73z"/>
<path d="M8113 7885 c-38 -16 -73 -68 -73 -108 0 -44 28 -94 67 -118 28 -18
44 -20 85 -16 54 7 81 25 104 69 57 111 -64 225 -183 173z"/>
<path d="M7430 7706 c0 -2 8 -10 18 -17 15 -13 16 -12 3 4 -13 16 -21 21 -21
13z"/>
<path d="M8182 7543 l-54 -4 6 -37 c3 -20 20 -152 36 -292 17 -140 43 -363 59
-495 17 -132 33 -275 37 -318 4 -43 10 -76 15 -75 4 2 30 32 59 67 45 58 50
69 46 100 -3 20 -15 113 -26 206 -11 94 -38 322 -60 508 -22 185 -40 339 -40
342 0 3 -6 4 -12 3 -7 -1 -37 -3 -66 -5z"/>
<path d="M7120 7531 c-115 -35 -190 -134 -190 -248 1 -178 168 -300 341 -249
76 21 129 63 164 127 24 45 29 65 28 119 0 80 -20 128 -77 185 -64 63 -180 92
-266 66z m115 -102 c72 -20 115 -77 115 -151 0 -86 -65 -148 -155 -148 -168 0
-216 211 -65 288 51 25 52 25 105 11z"/>
<path d="M8651 7254 c0 -11 3 -14 6 -6 3 7 2 16 -1 19 -3 4 -6 -2 -5 -13z"/>
<path d="M7183 6933 c-28 -4 -33 -8 -33 -31 0 -47 47 -413 54 -419 11 -11 131
-92 133 -89 2 2 -54 464 -62 514 -6 34 -10 35 -92 25z"/>
<path d="M10052 6775 c0 -16 2 -22 5 -12 2 9 2 23 0 30 -3 6 -5 -1 -5 -18z"/>
<path d="M10062 6710 c0 -14 2 -19 5 -12 2 6 2 18 0 25 -3 6 -5 1 -5 -13z"/>
<path d="M7940 6636 c0 -2 8 -10 18 -17 15 -13 16 -12 3 4 -13 16 -21 21 -21
13z"/>
<path d="M9540 6610 c-6 -11 -8 -20 -6 -20 3 0 10 9 16 20 6 11 8 20 6 20 -3
0 -10 -9 -16 -20z"/>
<path d="M10071 6594 c0 -11 3 -14 6 -6 3 7 2 16 -1 19 -3 4 -6 -2 -5 -13z"/>
<path d="M9458 6478 c-34 -56 -67 -108 -71 -115 -4 -7 -6 -13 -3 -13 2 0 26
35 53 78 73 114 95 152 90 152 -3 0 -34 -46 -69 -102z"/>
<path d="M7586 6553 c-6 -14 -5 -15 5 -6 7 7 10 15 7 18 -3 3 -9 -2 -12 -12z"/>
<path d="M7553 6425 c0 -22 2 -30 4 -17 2 12 2 30 0 40 -3 9 -5 -1 -4 -23z"/>
<path d="M9267 6183 c-539 -818 -644 -992 -759 -1267 -116 -277 -177 -551
-179 -806 -1 -146 7 -115 14 52 10 220 45 400 121 608 127 351 252 566 836
1445 81 122 82 125 76 125 -2 0 -52 -71 -109 -157z"/>
<path d="M7605 6266 c10 -14 19 -26 22 -26 7 0 -17 39 -28 46 -6 3 -3 -5 6
-20z"/>
<path d="M7838 6173 c7 -3 16 -2 19 1 4 3 -2 6 -13 5 -11 0 -14 -3 -6 -6z"/>
<path d="M7821 6068 l-43 -10 6 -45 c3 -25 6 -58 6 -73 0 -21 14 -38 72 -84
39 -31 72 -55 74 -53 1 1 -5 63 -14 137 -19 151 -16 148 -101 128z"/>
<path d="M10082 6040 c0 -19 2 -27 5 -17 2 9 2 25 0 35 -3 9 -5 1 -5 -18z"/>
<path d="M10072 5880 c0 -19 2 -27 5 -17 2 9 2 25 0 35 -3 9 -5 1 -5 -18z"/>
<path d="M10062 5805 c0 -16 2 -22 5 -12 2 9 2 23 0 30 -3 6 -5 -1 -5 -18z"/>
<path d="M10051 5734 c0 -11 3 -14 6 -6 3 7 2 16 -1 19 -3 4 -6 -2 -5 -13z"/>
<path d="M10041 5674 c0 -11 3 -14 6 -6 3 7 2 16 -1 19 -3 4 -6 -2 -5 -13z"/>
<path d="M10031 5624 c0 -11 3 -14 6 -6 3 7 2 16 -1 19 -3 4 -6 -2 -5 -13z"/>
<path d="M9946 5315 c-9 -26 -7 -32 5 -12 6 10 9 21 6 23 -2 3 -7 -2 -11 -11z"/>
<path d="M9906 5215 c-9 -26 -7 -32 5 -12 6 10 9 21 6 23 -2 3 -7 -2 -11 -11z"/>
<path d="M9886 5165 c-9 -26 -7 -32 5 -12 6 10 9 21 6 23 -2 3 -7 -2 -11 -11z"/>
<path d="M9820 5030 c-17 -33 -28 -60 -25 -60 2 0 18 27 35 60 17 33 28 60 25
60 -2 0 -18 -27 -35 -60z"/>
<path d="M9766 4935 c-9 -14 -23 -37 -32 -52 l-16 -28 20 24 c24 29 55 81 49
81 -3 0 -12 -11 -21 -25z"/>
<path d="M9680 4803 c-79 -113 -242 -294 -334 -372 -21 -18 -36 -34 -33 -37
10 -11 256 245 323 336 74 100 88 120 81 120 -2 0 -19 -21 -37 -47z"/>
<path d="M9246 4350 c-83 -69 -227 -165 -328 -219 -91 -49 -122 -70 -81 -54
79 31 336 196 423 273 59 51 49 52 -14 0z"/>
<path d="M8748 4045 c-55 -29 -196 -82 -323 -121 -98 -31 -101 -32 -94 -38 5
-6 231 69 324 107 70 28 165 76 150 76 -5 0 -31 -11 -57 -24z"/>
<path d="M8323 3960 c0 -25 2 -35 4 -22 2 12 2 32 0 45 -2 12 -4 2 -4 -23z"/>
<path d="M10195 2821 c-60 -26 -92 -109 -61 -156 37 -56 123 -81 191 -55 78
30 103 130 45 185 -26 25 -40 30 -93 32 -34 2 -71 -1 -82 -6z"/>
<path d="M3601 2678 c-61 -149 -389 -925 -400 -947 -12 -21 -11 -21 108 -21
l119 0 41 103 40 102 243 3 243 2 41 -102 40 -103 117 -3 c64 -1 117 -1 117 1
0 7 -99 245 -205 497 -60 140 -136 320 -169 400 l-61 145 -121 3 -120 3 -33
-83z m239 -358 c44 -107 83 -201 87 -207 4 -10 -34 -13 -171 -13 -97 0 -176 2
-176 4 0 2 14 36 31 77 45 109 120 291 130 318 5 13 11 22 14 20 2 -3 40 -92
85 -199z"/>
<path d="M6860 2235 l0 -525 100 0 100 0 2 353 3 352 19 -40 c10 -22 77 -149
148 -282 l130 -243 67 0 67 0 139 265 140 264 3 -334 2 -335 100 0 100 0 0
525 0 525 -104 0 -104 0 -21 -40 c-11 -22 -77 -143 -145 -268 -68 -125 -134
-248 -147 -274 -13 -27 -25 -48 -28 -48 -4 0 -28 42 -54 93 -27 50 -103 192
-169 315 l-121 222 -113 0 -114 0 0 -525z"/>
<path d="M9040 2610 l0 -110 -70 0 -70 0 0 -80 0 -80 69 0 69 0 4 -242 c3
-229 4 -245 25 -285 37 -67 94 -98 206 -109 54 -5 192 8 203 18 4 4 -13 121
-22 150 -4 15 -14 16 -68 11 -123 -11 -136 14 -136 272 l0 185 105 0 105 0 0
80 0 80 -105 0 -105 0 0 110 0 110 -105 0 -105 0 0 -110z"/>
<path d="M4534 2497 c-113 -43 -190 -123 -224 -235 -49 -159 -6 -323 114 -427
77 -68 139 -89 266 -89 114 -1 149 10 233 76 l37 30 0 -49 c0 -75 -18 -124
-60 -164 -82 -79 -260 -80 -412 -3 -26 13 -51 24 -56 24 -10 0 -82 -113 -82
-129 0 -5 20 -22 45 -37 121 -70 333 -102 469 -70 134 32 235 113 275 222 20
52 21 76 21 454 l0 400 -100 0 -100 0 0 -46 0 -46 -31 27 c-70 58 -127 78
-234 82 -86 3 -109 0 -161 -20z m271 -158 c78 -21 145 -119 145 -210 0 -129
-87 -212 -220 -212 -77 1 -105 11 -155 55 -99 86 -100 234 -3 326 19 18 48 37
64 42 42 12 122 12 169 -1z"/>
<path d="M5654 2506 c-57 -18 -102 -54 -132 -106 l-27 -45 -3 73 -3 72 -99 0
-100 0 0 -395 0 -395 104 0 105 0 3 223 c3 205 5 225 25 262 43 80 114 125
198 125 l45 0 0 100 0 100 -37 -1 c-21 0 -56 -6 -79 -13z"/>
<path d="M8350 2502 c-83 -28 -111 -45 -164 -101 -152 -163 -146 -437 12 -582
129 -120 362 -150 527 -69 76 37 130 82 123 101 -3 8 -31 34 -61 58 l-56 43
-36 -27 c-125 -96 -320 -63 -385 66 -11 21 -20 43 -20 49 0 7 99 10 301 10
l301 0 -4 88 c-7 124 -35 191 -112 268 -79 79 -144 105 -276 110 -73 3 -107 0
-150 -14z m240 -164 c46 -23 81 -71 95 -130 l7 -28 -201 0 c-195 0 -201 1
-201 20 0 53 44 112 105 144 46 24 141 21 195 -6z"/>
<path d="M9936 2505 c-52 -19 -84 -43 -123 -94 l-33 -43 0 66 0 66 -105 0
-105 0 0 -395 0 -395 105 0 105 0 0 198 c0 150 4 211 15 250 30 99 113 162
216 162 l54 0 0 98 0 97 -45 2 c-25 2 -63 -4 -84 -12z"/>
<path d="M10750 2506 c-160 -45 -265 -165 -290 -332 -27 -175 63 -352 217
-424 189 -89 444 -46 554 94 25 31 22 36 -46 86 -62 46 -75 48 -101 19 -50
-55 -167 -82 -254 -59 -58 16 -133 89 -149 145 -46 168 56 309 224 308 70 0
117 -18 168 -63 l37 -32 65 53 c36 29 65 56 65 61 0 4 -18 26 -41 48 -48 46
-128 87 -200 100 -69 13 -194 11 -249 -4z"/>
<path d="M11462 2504 c-74 -19 -136 -65 -161 -116 -82 -171 7 -287 267 -347
149 -35 181 -57 167 -114 -10 -38 -48 -52 -144 -52 -89 1 -196 30 -222 61 -20
24 -33 16 -73 -48 -45 -72 -43 -78 30 -119 72 -41 155 -59 270 -61 167 -1 272
45 322 142 30 59 28 173 -4 216 -52 71 -134 111 -281 139 -138 27 -185 68
-139 122 21 25 32 28 99 31 80 4 150 -11 222 -48 22 -11 41 -16 43 -11 2 5 18
34 37 66 19 32 35 59 35 60 0 11 -100 58 -161 75 -87 24 -227 26 -307 4z"/>
<path d="M10140 2105 l0 -395 105 0 105 0 0 395 0 395 -105 0 -105 0 0 -395z"/>
<path d="M5820 2132 c0 -213 140 -387 352 -437 307 -72 593 144 576 437 l-3
53 -462 3 -463 2 0 -58z"/>
</g>
</svg>
